<?xml version="1.0" standalone="no"?>
<!DOCTYPE svg PUBLIC "-//W3C//DTD SVG 20010904//EN"
 "http://www.w3.org/TR/2001/REC-SVG-20010904/DTD/svg10.dtd">
<svg version="1.0" xmlns="http://www.w3.org/2000/svg"
 width="512.000000pt" height="512.000000pt" viewBox="0 0 512.000000 512.000000"
 preserveAspectRatio="xMidYMid meet">
<g transform="translate(0.000000,512.000000) scale(0.100000,-0.100000)"
fill="#000000" stroke="none">
<path d="M235 5102 c-92 -32 -158 -91 -203 -182 l-27 -55 0 -2305 0 -2305 28
-57 c35 -72 95 -132 167 -166 l55 -27 1745 0 1745 0 48 22 c71 33 140 103 173
176 l29 62 1 503 c1 277 4 506 8 509 4 4 233 7 510 8 l502 0 37 25 c72 49 67
-39 67 1253 l0 1164 -22 33 c-13 18 -36 43 -51 54 -28 21 -37 21 -538 21 -446
0 -509 2 -510 15 0 8 -1 236 -3 505 -3 472 -4 492 -24 545 -40 103 -137 187
-240 209 -38 8 -541 11 -1750 11 -1582 -1 -1700 -2 -1747 -18z"/>
</g>
</svg>
